# xmcd
#
# Track frame offsets:
#	150
#	10060
#	22205
#	35179
#	48057
#	58702
#	71709
#	83131
#	95472
#	107516
#	120282
#	131802
#
# Disc length: 1917 seconds
#
# Revision: 1
# Processed by: cddbd v1.5.2PL0 Copyright (c) Steve Scherf et al.
# Submitted via: audiograbber 1.83.01
#
DISCID=9c077b0c
DTITLE=Various Artist - Christmas in the Country
DYEAR=2006
DGENRE=Christmas
TTITLE0=Brenda Lee - Jingle Bell Rock
TTITLE1=Gene Autry - Santa Claus is Comin' to Town
TTITLE2=Dale Evans - Suzy Snowflake
TTITLE3=Ernest Tubb - Blue Snowflakes
TTITLE4=Jeannie C. Riley - Away in a Manger
TTITLE5=Red Foley - Put Christ Back in Christmas
TTITLE6=Roy Rogers - Christmas on the Plains
TTITLE7=Gene Autry - If it Doesn't Snow on Christmas
TTITLE8=Bill Boyd and His Cowboy Ramblers - Jingle Bells
TTITLE9=Margaret Whiting and Jimmy Wakely - Christmas Candy
TTITLE10=Gene Autry - Merry Christmas Waltz
TTITLE11=Authur Smith and His Cracker Jacks - Merry Christmas Everyone
EXTD=
EXTT0=
EXTT1=
EXTT2=
EXTT3=
EXTT4=
EXTT5=
EXTT6=
EXTT7=
EXTT8=
EXTT9=
EXTT10=
EXTT11=
PLAYORDER=
